<svg width="58" height="46" viewBox="0 0 58 46" fill="none" xmlns="http://www.w3.org/2000/svg">
<path d="M41.2965 29.4929C42.0236 30.082 43.0916 29.793 43.5895 29.0363C44.1462 28.1896 43.654 26.9052 42.5914 26.7933C42.4915 26.783 42.4077 26.7377 42.3445 26.6733C41.8446 26.6667 41.3701 26.8123 40.9975 27.2463C40.4182 27.9225 40.6354 28.9572 41.2965 29.4929ZM39.7881 27.0904C40.4099 25.8112 42.261 25.0274 43.523 25.8456C43.6509 25.9283 43.7202 26.0446 43.7479 26.1668C44.6964 26.5993 45.2759 27.7746 44.9926 28.8746C44.59 30.4399 42.8037 31.4952 41.2791 30.8248C39.9185 30.2269 39.117 28.4721 39.7881 27.0904Z" fill="#8DD9E5"/>
<path d="M2.76298 36.6632C3.68924 39.3964 5.37009 41.7917 6.48919 44.4417C6.5469 44.3853 6.61191 44.3319 6.69226 44.2859C8.76539 43.0878 11.0255 42.2571 13.3441 41.682C12.3703 40.039 12.0928 38.0377 12.954 35.9386C14.1783 32.9551 19.0372 28.5174 22.1221 31.6862L22.2371 31.8545C24.3749 32.1897 26.2199 33.6811 27.1859 35.6176C28.8135 35.0379 30.4091 34.3924 31.9782 33.668C33.2089 33.0986 34.4345 32.276 35.7588 31.9665C35.2951 31.1878 34.9584 30.3265 34.8023 29.4029C34.1195 25.3663 37.0828 21.2791 41.1567 20.8634C41.4263 20.8363 41.6269 20.9285 41.7665 21.08C44.4362 20.9044 47.244 22.2378 48.9244 24.3871C51.3484 23.5396 53.8469 22.8474 56.3186 22.1624C56.4609 22.1221 56.5811 22.1368 56.6901 22.1697C51.9422 15.669 44.9324 6.75699 36.3369 13.205C35.6515 13.7195 34.9624 12.73 35.3627 12.1087C31.2845 5.48509 24.5247 0.172868 16.2909 2.41587C6.22548 5.15724 4.18524 16.9929 8.87131 25.2038C9.07074 25.5543 9.05028 25.8822 8.90564 26.1383C9.04078 26.5679 8.85451 27.0882 8.28911 27.0253C2.50584 26.3776 1.28082 32.2885 2.76298 36.6632ZM21.1815 43.8619C23.9329 43.5875 26.2687 41.0996 26.0915 38.2461C25.9029 35.2039 23.2743 33.4419 20.5741 32.8373C20.4557 32.8101 20.376 32.7538 20.3156 32.6858C17.3559 32.1165 14.2901 35.6599 14.1995 38.4314C14.087 41.8892 18.1076 44.1673 21.1815 43.8619ZM42.9056 34.1926C46.1243 33.911 49.2745 30.8746 48.4613 27.5068C47.7576 24.5935 44.5703 22.649 41.6024 22.4507C41.5365 22.4961 41.4708 22.5422 41.3873 22.5693C38.7455 23.4035 36.3677 25.427 36.4145 28.4465C36.4665 31.8018 39.6637 34.4773 42.9056 34.1926ZM0.22015 30.961C0.897312 27.8208 3.48324 25.2199 6.57028 25.2814C1.51531 16.848 4.77838 4.54911 14.2784 1.01153C23.0866 -2.26846 32.7709 2.77373 36.3355 11.1537C39.2817 8.77826 43.6711 8.84046 47.0882 10.2448C52.1072 12.3071 55.3752 17.197 57.9099 21.7584C58.2424 22.3585 57.5833 22.8298 57.093 22.5861C57.1851 22.9015 57.0707 23.2901 56.6701 23.4394C54.4119 24.2861 52.1302 25.1365 49.8224 25.8529C49.9437 26.1134 50.0552 26.3805 50.144 26.6557C51.5182 30.9339 47.6934 35.133 43.6286 35.7799C40.7857 36.2336 37.9437 34.9252 36.2536 32.7049C35.2012 33.8561 33.5203 34.5528 32.1429 35.2245C30.7019 35.9278 29.226 36.5506 27.7317 37.131C27.8887 37.807 27.946 38.5097 27.873 39.2186C27.4167 43.6244 23.1408 46.4161 18.9393 45.5248C17.1791 45.1515 15.5845 44.2712 14.4106 43.0672C12.0329 43.7573 9.8224 44.7395 7.6251 45.8847C7.04801 46.1857 6.51256 45.8533 6.31679 45.3944C5.89311 45.7903 5.07351 45.8518 4.72799 45.2443C2.34002 41.0453 -0.87339 36.0253 0.22015 30.961Z" fill="#8DD9E5"/>
<path d="M19.7816 39.4522C20.3435 39.5994 21.0263 39.4376 21.3342 38.9093C21.8027 38.104 21.1264 37.0401 20.1896 37.161C20.0644 37.1779 19.9833 37.1029 19.9471 37.0057C19.4726 37.1572 19.0777 37.4792 18.9119 38.0171C18.7033 38.694 19.1276 39.2801 19.7816 39.4522ZM17.5762 38.028C17.7829 36.593 19.3892 35.1419 20.8762 35.75C21.1496 35.862 21.2859 36.1399 21.2762 36.3946C22.2088 36.5475 22.9355 37.4712 22.8379 38.582C22.7007 40.1371 21.3085 41.0382 19.8261 40.7951C18.4739 40.5739 17.3694 39.4662 17.5762 38.028Z" fill="#8DD9E5"/>
<path d="M23.9407 16.9929C26.1056 16.4228 28.1986 15.6807 30.2927 14.8926C30.2402 14.8186 30.1934 14.7352 30.1615 14.6342C28.7995 10.3919 24.66 6.62819 20.0217 6.8814C21.4687 10.1892 22.8472 13.5541 23.9407 16.9929ZM18.6808 5.18945C24.5604 5.09212 30.2542 8.14964 31.8576 14.1651C31.9474 14.501 31.855 14.7755 31.6756 14.9643C31.6972 15.1341 31.6424 15.3141 31.4741 15.4165C29.0056 16.9277 26.3255 17.9815 23.5925 18.9036C23.1091 19.0668 22.6808 18.7112 22.5147 18.2911C20.9716 14.3839 19.5414 10.4453 17.8816 6.58355C17.6106 5.95346 17.9174 5.20189 18.6808 5.18945Z" fill="#8DD9E5"/>
<path d="M17.8701 19.3588C18.0849 18.971 17.1645 17.017 17.0439 16.6116C16.2397 13.9002 15.3755 11.1771 14.7633 8.41016C10.8231 12.0539 10.4148 16.5779 11.4367 21.6311C12.8224 21.1737 14.2133 20.728 15.5903 20.2436C16.0388 20.0862 17.6312 19.7906 17.8701 19.3588ZM14.5384 6.90263L14.5464 6.90043C14.7071 6.57258 15.1943 6.41012 15.3784 6.82871C16.32 8.97366 17.041 11.2115 17.7715 13.4355C18.3267 15.1253 19.7676 17.7144 19.635 19.44C19.5633 20.3738 19.3793 20.5553 18.5838 21.0325C16.5713 22.24 13.58 22.6973 11.368 23.4262C10.8406 23.5997 10.4695 23.2594 10.3687 22.8408C10.2511 22.7793 10.1401 22.693 10.0539 22.551C6.90403 17.3697 9.91364 10.0267 14.5384 6.90263Z" fill="#8DD9E5"/>
</svg>
