<svg width="101" height="50" viewBox="0 0 101 50" fill="none" xmlns="http://www.w3.org/2000/svg">
<path d="M67.8955 6.41935C70.6996 8.57981 73.3408 10.9053 75.8796 13.3508C72.9686 13.8565 70.0582 14.1123 67.0766 14.1923C66.6021 14.2041 66.2992 14.4501 66.1326 14.7654C63.1191 12.2174 59.8843 9.95439 56.4897 8.00871C60.1483 5.07797 63.1746 2.7818 67.8955 6.41935ZM69.1769 21.2361C69.2662 21.3288 69.3596 21.3991 69.4546 21.4577L69.4527 21.4626C68.586 27.6891 67.7246 33.2636 62.213 37.0115H62.2068C50.1469 39.2139 37.7097 38.3704 26.8879 32.2951C23.8207 30.574 20.9432 28.5336 18.2424 26.2687C24.1453 20.0343 25.5575 10.9385 23.3323 2.8892L23.3006 2.80914C40.0435 1.3262 57.126 8.68721 69.1769 21.2361ZM75.0332 22.473C74.0076 28.0562 72.7293 33.5867 71.2117 39.0597C69.6008 38.1205 67.9847 37.1901 66.321 36.3456C70.0373 33.0625 71.2106 27.0887 71.7037 22.3656C72.8135 22.4144 73.9232 22.4486 75.0332 22.473ZM77.4065 26.9765C82.2341 25.2016 85.4848 31.109 88.7743 34.1588C87.1346 35.6642 85.3836 37.1579 83.1802 37.7261C80.1221 38.5139 77.3545 37.2262 74.9793 35.4016C74.8464 35.2991 74.6924 35.2718 74.5486 35.2913C75.2674 32.4875 75.9063 29.667 76.4763 26.8291C76.6977 27.0311 77.0183 27.12 77.4065 26.9765ZM92.5837 30.2479C94.0102 32.2795 95.3858 34.152 97.2512 35.6554C93.8912 37.7866 91.343 41.1147 87.3164 42.0831C82.3167 43.2859 77.3022 41.3597 73.9026 37.7583C74.0426 37.2448 74.1713 36.7303 74.3066 36.2148C75.9222 38.8644 79.0195 40.2136 82.138 40.0261C85.8027 39.8045 88.7068 37.278 91.2232 34.89C91.7629 34.3765 91.5776 33.5584 90.9987 33.1777C86.5371 30.2411 83.4532 22.5179 76.8454 24.9751H76.8416L76.8733 24.814L77.0885 24.7379C83.6776 21.6998 88.8091 24.8726 92.5837 30.2479ZM3.15312 9.40085C8.68975 6.05228 14.551 4.02069 20.4916 3.13424C20.4797 3.29533 20.4876 3.46324 20.5382 3.64678C22.6882 11.3651 20.8459 18.3151 16.69 24.9273C11.5444 20.335 7.06092 14.9392 3.15312 9.40085ZM61.2362 39.784C62.8085 41.3353 66.6618 44.1606 67.136 46.284C67.4954 47.8821 67.792 47.1655 66.0531 47.4789C64.6755 47.7269 62.7387 47.4789 61.3363 47.4789C58.854 47.4789 55.9147 47.9036 53.4751 47.4789C51.0375 47.0552 49.718 46.2196 48.7274 43.8746C48.3327 42.9403 48.1838 41.8273 47.9395 40.8052C52.1429 40.8921 56.4676 40.3268 60.8846 38.9952C60.8776 39.2539 60.9789 39.5302 61.2362 39.784ZM54.9164 7.13398C38.118 -1.87788 17.7203 -3.13628 0.651801 7.91694C0.0949615 8.27816 -0.224645 9.06794 0.186285 9.66639C10.9479 25.3705 27.3682 39.6405 46.408 40.7496C46.2324 43.4665 46.405 47.7952 49.0341 49.3075C50.7246 50.2798 53.2123 49.8805 55.0474 49.8815C57.9298 49.8825 60.8121 49.8815 63.6949 49.8815C65.7972 49.8815 70.2785 50.8031 70.3134 47.5063C70.3452 44.3793 65.2303 40.0789 62.9485 38.2708C63.7383 38.019 64.454 37.6773 65.1073 37.2633C67.0189 38.9796 69.1273 40.3815 71.3467 41.6936C71.9728 42.0646 72.7886 41.7092 72.9872 41.0376C73.0965 40.6656 73.1919 40.2917 73.2989 39.9207C76.0623 43.2205 80.1706 45.0539 84.6205 45.0197C91.5784 44.967 94.577 39.5 100.364 36.8933C101.268 36.4853 101.154 35.1234 100.364 34.6831C95.2489 31.8382 93.7551 25.5433 88.6185 22.6751C85.0859 20.703 81.0472 20.6191 77.3883 22.0063C77.4053 21.9029 77.4271 21.8013 77.4441 21.6978C77.562 20.9959 77.1521 20.3213 76.3682 20.3086C74.7195 20.2823 73.0717 20.2481 71.423 20.2627C71.4269 19.965 71.3308 19.6565 71.0636 19.3792C70.0781 18.3541 69.0548 17.3691 68.0064 16.4124C71.6185 16.4133 75.1484 15.9926 78.6906 15.2457C79.6127 15.0515 79.8313 13.8624 79.2268 13.2463C76.5694 10.5372 73.8022 7.94818 70.8473 5.55439C69.0963 4.13686 66.982 1.98616 64.7735 1.376C61.1161 0.36459 57.1713 4.06559 54.9164 7.13398Z" fill="#FFD787"/>
<path d="M38.1137 11.9283C41.5424 13.6534 42.6033 17.6805 41.6406 21.1354C41.2187 22.6506 40.1695 24.773 38.4841 25.3353C36.5217 25.9894 33.9015 24.7544 32.496 23.5009C30.0044 21.278 29.6609 17.8835 30.3708 14.8269C31.8348 11.8981 34.9623 10.3439 38.1137 11.9283ZM27.946 14.1298C27.813 14.5779 27.9747 14.9801 28.2635 15.2681C23.9706 24.8482 40.0206 34.2095 43.9336 22.8917C45.6527 17.9196 44.0603 11.8864 38.9706 9.54333C34.6994 7.57811 29.3027 9.56383 27.946 14.1298Z" fill="#FFD787"/>
</svg>
