<svg width="78" height="89" fill="none" xmlns="http://www.w3.org/2000/svg"><path d="M37.74 17.38c-1.349-.698-3.112-.1-3.792 1.253-.245.486.392 1.07.785.614.598-.695 1.536-1.113 2.433-.776.991.374 1.33 1.512 1.014 2.468-.22.663.796.936 1.024.288.502-1.425-.116-3.149-1.464-3.846zm15.163 5.231c-1.673-.473-3.66.766-3.651 2.61.001.295.417.427.561.155.494-.935 1.473-1.776 2.595-1.546 1.215.249 1.624 1.561 1.42 2.656-.112.601.739 1.076 1.041.447.794-1.653-.227-3.83-1.966-4.322zm-10.157 1.77c-.339-.03.215-.005-.17-.037a.84.84 0 00-.305.015c-.195.051-.382.17-.535.297a1.831 1.831 0 00-.619 1.046c-.178.835.074 1.797.864 2.205.25.13.48.08.691-.09.57-.456-.352-.997-.403-1.476a1.407 1.407 0 01.16-.763c.1-.2.281-.316.403-.482l.092-.049c.35-.16.13-.638-.178-.666zm1.83 5.123c-2.504-.295-4.665-.902-6.774-2.369-.276-.191-.601.241-.356.47 1.901 1.782 4.495 2.982 7.13 2.835.604-.034.58-.868 0-.936z" fill="#8DD9E5"/><path d="M74.864 28.34c-1.22.495-2.263-.071-3.12-.872.031-.077.073-.15.104-.225.157-.4-.145-.697-.491-.758-.143-1.08.008-2.128 1.19-2.752 1.337-.706 3.15-.136 3.629 1.363.392 1.23-.074 2.741-1.312 3.243zm-24.757 4.108c-8.863 2.13-18.774-2.767-19.357-12.738-.18-3.076.532-5.868 1.847-8.336 3.109.875 6.254.95 9.399.47-.736.86-1.517 1.537-2.6 2.304-.481.34-.466 1.168.17 1.329 4.413 1.117 8.664 1.057 12.847-.325a7.296 7.296 0 01-2.542 1.582.765.765 0 000 1.454c4.01 1.471 8.083 1.594 12.125.252-.562 6.582-5.28 12.42-11.889 14.008zm2.65 7.212c-1.844-.39-3.693-.759-5.56-1.002.002-1.22-.01-2.441-.043-3.663.984-.06 1.968-.19 2.943-.401a17.711 17.711 0 002.371-.694c.166 1.946.437 3.79.288 5.76zm-9.055 18.377c-4.093-.443-8.097-1.363-11.953-2.852-3.977-1.538-9.27-3.843-12.235-7.066-.666-.723-.96-.484-.699-1.438.138-.502 2.516-2.203 2.919-2.572a97.602 97.602 0 004.192-4.065c2.827-2.916 5.815-5.985 7.78-9.591 3.043 2.797 7.17 4.383 11.462 4.56.212 7.725-.27 15.394-1.466 23.024zm-17.258-28.24c1.23-1.411 2.521-2.768 3.736-4.196a15.062 15.062 0 002.772 4.108 52.737 52.737 0 00-2.624 2.523c-1.177-.951-2.528-1.74-3.884-2.435zm16.19-27.694c.104.201.305.344.624.32 7.838-.571 16.154 2.302 18.327 10.904a15.44 15.44 0 01.462 3.302l-.173.043c-3.321 1.185-6.487 1.41-9.766.606 1.28-.804 2.265-1.88 3.053-3.367.36-.68-.345-1.303-.985-1.002-4.074 1.911-8.434 2.484-12.769 1.538 1.122-.93 2.053-1.991 2.896-3.278.357-.544-.232-1.223-.809-1.068-3.577.957-6.842.988-10.446.49 2.192-3.641 5.706-6.526 9.585-8.488zM33.37 85.394c.296.003.59.047.877.13.86.122 1.02.494.477 1.118-.365.848-.467.75-1.256.727a9.459 9.459 0 01-1.684-.203 9.143 9.143 0 01-2.242-.813.926.926 0 00.123-.281c.82-.264 1.625-.541 2.501-.639a6.94 6.94 0 011.204-.039zM4.648 75.431c-.7-.278-2.373-1.022-2.645-1.803-.208-.598.468-.307.85-.17.505.178.97.422 1.421.709.767.484 1.349 1.105 1.966 1.732-.538-.128-1.073-.262-1.592-.468zM20.444 8.168c-.982-.382-1.704-1.213-1.695-2.35.013-1.45 1.329-2.453 2.598-2.788 1.67-.441 3.484.133 3.148 2.215-.288 1.796-1.676 3.272-3.534 2.541-.316-.123-.506.117-.517.382zm57.187 16.023c-.986-2.22-3.822-3.022-5.881-1.843-1.58.901-2.612 3.399-1.845 5.167-2.08 2.104-3.827 4.261-6.509 5.827-2.769 1.617-5.74 2.324-8.819 2.944-.048-1.06-.197-2.104-.517-3.062 7.076-3.424 11.376-11.318 9.83-19.504C62.345 5.532 53.401-1.53 45.12.288a.414.414 0 00-.32-.05c-9.548 1.99-17.219 10.452-15.914 20.796a15.88 15.88 0 00.719 3.104l-.15.117c-.517.605-1.044 1.21-1.579 1.81a.802.802 0 00-.17-.417c-4.148-5.196-5.855-9.902-6.082-16.52 2.092.659 4-1.615 4.372-3.89.333-2.04-.572-4.08-3.693-4.002-2.277.058-4.782 1.564-5.12 4.016-.263 1.91.958 4.181 2.929 4.372-.837 6.136 1.83 13.23 6.596 17.035a.764.764 0 00.473.175c-.87.934-1.78 1.826-2.769 2.613-.46.367-.258 1.135.178 1.404 1.47.903 3.068 1.834 4.712 2.446-2.674 2.828-5.204 5.829-8.035 8.489-2.217 2.083-6.82 4.364-3.638 7.374.257.243.528.473.794.708-2.319 2.518-4.342 5.31-6.36 8.078-1.114 1.528-4.714 4.964-4.622 6.94.072 1.553 2.297 2.85 3.41 3.627.461.322.935.614 1.417.89-1.084.95-2.02 2.09-2.98 3.159-.688.764-1.583 1.535-2.275 2.387-1.56-1.813-5.806-4.962-6.895-2.32-.596 1.447 1.2 2.739 2.23 3.374 1.274.787 2.829 1.32 4.333 1.167a.69.69 0 00.605-.053c1.348-.763 2.358-2.376 3.346-3.562.944-1.135 1.93-2.305 2.637-3.615a19.511 19.511 0 005.178 1.72.823.823 0 00.607-.116c.135.028.28.003.4-.119 1.754-1.782 3.553-3.86 4.9-5.981.413-.653-.53-1.387-1.057-.827-1.535 1.63-2.938 3.613-4.148 5.55a.797.797 0 00-.263-.124c-2.168-.548-4.257-1.259-6.165-2.47-.881-.56-2.696-1.41-2.942-2.342-.266-1.01.527-1.654 1.317-2.766 2.775-3.908 5.688-7.796 7.98-12.025 6.067 5.07 14.143 8.04 21.922 9.264-1.84 5.008-3.205 10.51-4.442 15.734-2.857.074-6.597-.032-9.085-1.718-1.311-.89-.513-1.908-.09-3.326.477-1.593.95-3.18 1.285-4.81 1.078.047 2.15-.12 3.14-.556.582-.255.297-1.286-.326-1.223-3.897.397-6.92-.27-9.544-3.459-.4-.485-1.14.137-.846.662 1.256 2.235 3.729 3.924 6.336 4.43-.782 1.872-1.407 3.809-2.026 5.744-.38 1.184-.953 2.413.105 3.37 1.127 1.017 3.172 1.575 4.64 1.941-.911 2.948-1.541 6.077-2.12 9.109a.922.922 0 00.021.44c-.402.315-.535 1.013.038 1.344 1.817 1.05 9.037 3.42 8.78-.824-.195-3.222-4.282-3.017-6.857-1.967.592-2.578 1.139-5.212 1.465-7.818 1.663.31 3.366.414 5.047.25.276.262.743.313.927-.119 2.236-5.248 4.312-11.302 5.136-16.979.655.084 1.308.159 1.954.218.393.036.893-.337.96-.741a129.39 129.39 0 001.69-19.475c1.996.617 4.038 1.082 6.07 1.546.397.091.95-.12 1.019-.587.17-1.144.306-2.399.319-3.656 5.901.337 13.528-3.216 16.582-8.618.961 1.317 3.174 1.692 4.567 1.106 2.064-.869 2.762-3.565 1.888-5.532z" fill="#8DD9E5"/></svg>