<svg width="48" height="38" fill="none" xmlns="http://www.w3.org/2000/svg"><path d="M34.176 24.364c.602.486 1.486.248 1.898-.378.46-.699.053-1.76-.826-1.852a.331.331 0 01-.204-.1c-.414-.005-.807.115-1.115.474-.48.558-.3 1.413.247 1.856zm-1.248-1.985c.515-1.057 2.047-1.704 3.091-1.028a.42.42 0 01.186.265c.785.357 1.265 1.328 1.03 2.237-.333 1.293-1.811 2.165-3.073 1.611-1.126-.494-1.79-1.944-1.234-3.085z" fill="#8DD9E5"/><path d="M2.287 30.287c.766 2.258 2.157 4.237 3.083 6.426a.826.826 0 01.168-.129c1.716-.99 3.587-1.676 5.505-2.151-.805-1.357-1.035-3.01-.322-4.745 1.013-2.464 5.034-6.13 7.587-3.512l.095.139c1.77.276 3.296 1.508 4.096 3.108a47.384 47.384 0 003.966-1.61c1.018-.47 2.032-1.15 3.128-1.406a6.129 6.129 0 01-.791-2.118c-.565-3.334 1.887-6.71 5.259-7.054a.576.576 0 01.504.179c2.21-.145 4.534.956 5.924 2.732 2.006-.7 4.074-1.272 6.12-1.838a.526.526 0 01.307.006c-3.93-5.37-9.73-12.732-16.844-7.405-.567.425-1.138-.393-.806-.906-3.375-5.472-8.97-9.86-15.784-8.007C5.152 4.26 3.464 14.038 7.342 20.82c.165.29.148.56.028.773.112.354-.042.784-.51.732-4.786-.535-5.8 4.348-4.573 7.962zm15.243 5.947c2.276-.227 4.21-2.282 4.063-4.64-.156-2.513-2.331-3.968-4.566-4.468a.392.392 0 01-.214-.125c-2.45-.47-4.987 2.457-5.062 4.747-.093 2.856 3.235 4.738 5.779 4.486zm17.978-7.988c2.664-.233 5.27-2.74 4.598-5.523-.583-2.407-3.22-4.013-5.676-4.177-.055.038-.11.076-.178.098-2.187.69-4.155 2.36-4.116 4.855.043 2.772 2.69 4.982 5.372 4.747zM.182 25.576c.56-2.594 2.7-4.742 5.255-4.691-4.183-6.967-1.482-17.127 6.38-20.05 7.29-2.709 15.304 1.456 18.254 8.379 2.438-1.962 6.07-1.911 8.898-.75 4.154 1.703 6.859 5.742 8.956 9.51.276.496-.27.885-.676.684a.563.563 0 01-.35.705c-1.868.7-3.757 1.402-5.667 1.994.1.215.193.436.267.663 1.137 3.534-2.029 7.003-5.393 7.537-2.352.375-4.704-.706-6.103-2.54-.871.951-2.262 1.527-3.402 2.082a47.577 47.577 0 01-3.65 1.574c.13.559.177 1.14.116 1.725-.377 3.64-3.916 5.946-7.393 5.21-1.457-.309-2.776-1.036-3.748-2.03-1.968.57-3.797 1.38-5.616 2.327-.477.248-.92-.026-1.082-.405-.351.327-1.03.378-1.315-.124-1.976-3.469-4.636-7.616-3.73-11.8z" fill="#8DD9E5"/><path d="M16.371 32.59c.465.123 1.03-.011 1.285-.448.388-.665-.172-1.544-.947-1.444-.104.014-.171-.048-.201-.128-.393.125-.72.391-.857.835-.172.56.179 1.044.72 1.186zm-1.825-1.176c.17-1.185 1.5-2.384 2.73-1.881a.55.55 0 01.332.532c.772.126 1.373.89 1.292 1.807-.113 1.285-1.265 2.03-2.492 1.828-1.12-.182-2.033-1.098-1.862-2.286zm5.267-17.376c1.792-.471 3.524-1.084 5.257-1.736a.755.755 0 01-.109-.213c-1.127-3.504-4.553-6.614-8.391-6.404 1.197 2.732 2.338 5.512 3.243 8.353zM15.46 4.287c4.866-.08 9.578 2.445 10.905 7.415.074.277-.002.504-.15.66a.367.367 0 01-.168.373c-2.042 1.249-4.26 2.12-6.522 2.881-.4.135-.755-.159-.892-.506-1.277-3.228-2.46-6.481-3.834-9.671-.225-.52.03-1.142.661-1.152zm-.67 11.705c.177-.32-.585-1.935-.685-2.27-.665-2.24-1.38-4.489-1.887-6.774-3.261 3.01-3.599 6.747-2.753 10.921 1.147-.378 2.298-.746 3.437-1.146.372-.13 1.69-.374 1.887-.73zm-2.758-10.29l.006-.002c.133-.27.537-.405.689-.059.78 1.772 1.376 3.62 1.98 5.458.46 1.396 1.652 3.535 1.543 4.96-.06.772-.212.921-.87 1.316-1.666.997-4.141 1.375-5.972 1.977-.436.143-.744-.138-.827-.483a.638.638 0 01-.26-.24c-2.607-4.28-.117-10.346 3.71-12.927z" fill="#8DD9E5"/></svg>