<svg width="58" height="46" fill="none" xmlns="http://www.w3.org/2000/svg"><path d="M41.297 29.493c.727.589 1.795.3 2.293-.457.556-.846.064-2.13-.999-2.243a.4.4 0 01-.247-.12c-.5-.006-.974.14-1.346.573-.58.677-.363 1.711.299 2.247zm-1.509-2.403c.622-1.279 2.473-2.063 3.735-1.244a.508.508 0 01.225.32c.948.433 1.528 1.609 1.245 2.709-.403 1.565-2.19 2.62-3.714 1.95-1.36-.598-2.162-2.353-1.49-3.735z" fill="#8DD9E5"/><path d="M2.763 36.663c.926 2.733 2.607 5.129 3.726 7.779a.994.994 0 01.203-.156c2.073-1.198 4.333-2.029 6.652-2.604-.974-1.643-1.251-3.644-.39-5.743 1.224-2.984 6.083-7.422 9.168-4.253l.115.169c2.138.335 3.983 1.826 4.949 3.763a57.195 57.195 0 004.792-1.95c1.23-.57 2.456-1.392 3.78-1.701a7.428 7.428 0 01-.956-2.564c-.682-4.037 2.28-8.124 6.355-8.54.27-.027.47.066.61.217 2.67-.176 5.477 1.158 7.157 3.307 2.424-.847 4.923-1.54 7.395-2.225a.635.635 0 01.371.008c-4.748-6.501-11.758-15.413-20.353-8.965-.686.514-1.375-.475-.974-1.096C31.285 5.485 24.525.173 16.29 2.416 6.225 5.157 4.185 16.993 8.87 25.204c.2.35.18.678.035.934.135.43-.051.95-.617.887-5.783-.647-7.008 5.264-5.526 9.638zm18.419 7.199c2.75-.275 5.087-2.762 4.91-5.616-.19-3.042-2.818-4.804-5.518-5.409a.473.473 0 01-.258-.151c-2.96-.57-6.026 2.974-6.116 5.745-.113 3.458 3.908 5.736 6.982 5.43zm21.724-9.67c3.218-.281 6.369-3.317 5.555-6.685-.703-2.914-3.89-4.858-6.859-5.056-.066.045-.131.091-.215.118-2.642.835-5.02 2.858-4.973 5.878.053 3.355 3.25 6.03 6.492 5.746zM.22 30.962c.677-3.14 3.263-5.741 6.35-5.68-5.055-8.433-1.792-20.732 7.708-24.27 8.809-3.28 18.493 1.763 22.058 10.143 2.946-2.376 7.335-2.314 10.752-.91 5.02 2.063 8.287 6.953 10.822 11.514.332.6-.327 1.072-.817.828.092.316-.022.704-.423.853-2.258.847-4.54 1.698-6.848 2.414.122.26.233.527.322.803 1.374 4.278-2.45 8.477-6.515 9.124-2.843.454-5.685-.855-7.375-3.075-1.053 1.151-2.734 1.848-4.111 2.52a57.489 57.489 0 01-4.411 1.906c.157.676.214 1.379.141 2.088-.456 4.405-4.732 7.197-8.934 6.306-1.76-.373-3.354-1.254-4.528-2.458-2.378.69-4.589 1.672-6.786 2.818-.577.3-1.112-.032-1.308-.49-.424.395-1.243.457-1.589-.15C2.34 41.044-.873 36.024.22 30.96z" fill="#8DD9E5"/><path d="M19.782 39.452c.561.147 1.244-.014 1.552-.543.469-.805-.208-1.869-1.144-1.748-.126.017-.207-.058-.243-.155-.474.151-.87.473-1.035 1.011-.209.677.216 1.263.87 1.435zm-2.206-1.424c.207-1.435 1.813-2.886 3.3-2.278.274.112.41.39.4.645.933.152 1.66 1.076 1.562 2.187-.137 1.555-1.53 2.456-3.012 2.213-1.352-.221-2.457-1.329-2.25-2.767zm6.364-21.035c2.166-.57 4.259-1.312 6.353-2.1a.92.92 0 01-.131-.259c-1.363-4.242-5.502-8.006-10.14-7.753 1.447 3.308 2.825 6.673 3.919 10.112zM18.68 5.189c5.88-.097 11.574 2.96 13.178 8.976.09.336-.003.61-.182.8a.444.444 0 01-.202.451c-2.468 1.512-5.148 2.566-7.881 3.488-.484.163-.912-.193-1.078-.613-1.543-3.907-2.974-7.846-4.633-11.707-.271-.63.035-1.382.799-1.395zm-.81 14.17c.215-.388-.706-2.342-.826-2.747-.804-2.712-1.668-5.435-2.28-8.202-3.94 3.644-4.35 8.168-3.327 13.221 1.385-.457 2.776-.903 4.153-1.387.449-.158 2.041-.453 2.28-.885zM14.538 6.903l.008-.003c.161-.327.648-.49.832-.071.942 2.145 1.663 4.382 2.393 6.606.556 1.69 1.997 4.28 1.864 6.005-.072.934-.256 1.115-1.051 1.592-2.013 1.208-5.004 1.665-7.216 2.394-.527.174-.899-.167-1-.585a.771.771 0 01-.314-.29c-3.15-5.181-.14-12.524 4.484-15.648z" fill="#8DD9E5"/></svg>