<svg width="30" height="48" fill="none" xmlns="http://www.w3.org/2000/svg"><path d="M27.366 30.175a34.66 34.66 0 00-2.28-.493 44.8 44.8 0 00.376-4.364c.8.139 1.6.28 2.4.431l.121.012a135.289 135.289 0 01-.617 4.414zm-.77 4.482l-.052-.02a37.249 37.249 0 00-2.514-.31 24.24 24.24 0 00.847-3.33c.742.227 1.489.44 2.243.614-.169 1.016-.334 2.033-.525 3.046zm-2.617 11.406a120.387 120.387 0 00-9.216-1.56 114.66 114.66 0 00-4.965-.514c.18-2.581.488-5.931 3.524-6.777 4.114-1.145 3.94 4.461 3.818 6.723-.043.808 1.118.846 1.383.179 1.251-3.149-.384-8.923-4.744-8.52-4.365.406-5.326 4.832-5.038 8.303-.543-.039-1.269-.012-2.041.014-1.465.05-3.096.1-3.972-.292-.679.2-.915-.037-.709-.711a7.1 7.1 0 01-.013-1.345c.01-.86.069-1.723.103-2.583.077-1.937.155-3.874.23-5.812l.026-.627c1.715.424 4.784 1.327 5.74-.33.638-1.105.697-2.752.8-4.162.36-.196.39-.715.09-.969l.016-.135c.19-1.344.437-2.69.575-4.043 3.896.558 7.792 1.106 11.678 1.72l-.045.079c-1.055 3.21-1.363 6.738-1.572 10.082-.026.422.377.706.772.737 1.97.156 3.967.379 5.944.37a146.585 146.585 0 01-2.384 10.173zM2.534 27.995c.53.022 1.06.042 1.591.06a29.386 29.386 0 00.238 3.917c-.669-.055-1.367-.16-1.967-.194.052-1.26.1-2.521.138-3.783zm2.118-5.826a37.303 37.303 0 00-.508 4.838c-.528.018-1.056.038-1.583.06a68.667 68.667 0 00-.057-5.222c.715.113 1.432.215 2.148.324zm2.705 5.957l-.046.366c-.154 1.151.073 3.044-1.325 3.417-.22.058-.47.084-.732.092a59.878 59.878 0 01.027-3.908c.693.019 1.385.029 2.076.034zM5.338 26.97c.099-1.542.269-3.079.54-4.616.738.11 1.476.226 2.214.333-.259 1.403-.42 2.832-.587 4.25-.721.004-1.444.014-2.167.034zm15.912 7.139c.11-1.397.281-2.785.46-4.17.544.192 1.092.382 1.641.568a82.23 82.23 0 00-.312 3.737c-.597-.047-1.193-.092-1.789-.135zm2.212-4.706c-.55-.088-1.102-.171-1.652-.25.189-1.433.379-2.867.515-4.308l-.005-.055c.529.086 1.057.175 1.585.264l-.042.149c-.103 1.4-.253 2.8-.401 4.2zM17.438 3.242a298.086 298.086 0 0110.067 20.57c-5.926-1.13-11.95-2.144-17.997-2.704a.763.763 0 00-.903-.08 103.793 103.793 0 00-5.782-.339C8.689 15.87 13.37 9.526 17.437 3.243zm12.475 20.662A304.14 304.14 0 0018.492.52c-.397-.73-1.512-.655-1.928 0C12.02 7.664 6.404 13.91 1.287 20.644c-.573-.002-.733.89-.136.989l.042.006C.58 26.094.54 30.619.367 35.106l-.252 6.457c-.033.876-.392 2.53.356 3.307.458.476.997.428 1.586.54 1.278.243 2.693.237 4.089.232.892-.003 1.776-.007 2.613.054 5.276.387 10.491 1.178 15.654 2.28.489.105 1.015-.139 1.15-.624a147.322 147.322 0 004.344-22.172.75.75 0 00-.067-.433c.166-.213.223-.499.073-.842z" fill="#FFD787"/></svg>