<svg width="67" height="34" fill="none" xmlns="http://www.w3.org/2000/svg"><path d="M45.04 4.365a64.064 64.064 0 015.296 4.714 39.271 39.271 0 01-5.84.572.691.691 0 00-.626.39 43.148 43.148 0 00-6.397-4.595c2.427-1.993 4.435-3.554 7.567-1.08zm.85 10.076c.059.063.12.11.184.15l-.001.004c-.575 4.234-1.147 8.024-4.803 10.573h-.004c-8 1.498-16.25.924-23.43-3.207-2.034-1.17-3.943-2.558-5.735-4.098 3.916-4.24 4.853-10.425 3.377-15.898l-.021-.055C26.564.902 37.895 5.907 45.89 14.44zm3.885.84a133.079 133.079 0 01-2.535 11.28c-1.07-.64-2.141-1.272-3.245-1.846 2.465-2.232 3.244-6.295 3.57-9.506.737.033 1.473.056 2.21.073zm1.574 3.063c3.202-1.207 5.359 2.81 7.54 4.884-1.087 1.024-2.248 2.04-3.71 2.426-2.029.535-3.865-.34-5.44-1.58a.37.37 0 00-.286-.076c.477-1.907.9-3.824 1.279-5.754.147.137.36.198.617.1zm10.068 2.225c.946 1.381 1.859 2.654 3.096 3.677-2.229 1.449-3.92 3.712-6.59 4.37-3.317.818-6.643-.491-8.898-2.94.092-.35.178-.7.267-1.05 1.072 1.802 3.127 2.72 5.196 2.592 2.43-.15 4.357-1.869 6.026-3.493.358-.349.235-.905-.149-1.164-2.96-1.997-5.005-7.249-9.388-5.578h-.003l.021-.11.143-.051c4.37-2.066 7.775.091 10.279 3.747zM2.092 6.393A30.455 30.455 0 0113.593 2.13c-.008.11-.002.224.031.349 1.427 5.248.204 9.974-2.552 14.47-3.414-3.122-6.388-6.791-8.98-10.557zm38.53 20.66c1.043 1.055 3.6 2.976 3.914 4.42.238 1.087.435.6-.719.813-.913.168-2.198 0-3.129 0-1.646 0-3.596.288-5.214 0-1.617-.288-2.493-.857-3.15-2.451-.262-.636-.36-1.392-.523-2.088 2.789.06 5.658-.325 8.588-1.23a.729.729 0 00.233.536zM36.43 4.851C25.286-1.277 11.755-2.133.432 5.384c-.369.245-.581.782-.308 1.19C7.262 17.251 18.155 26.955 30.786 27.71c-.117 1.847-.003 4.79 1.742 5.82 1.121.66 2.771.389 3.989.39h5.736c1.395 0 4.367.626 4.39-1.616.022-2.126-3.371-5.05-4.885-6.28a6.095 6.095 0 001.432-.685c1.268 1.167 2.667 2.12 4.139 3.013.415.252.956.01 1.088-.447.073-.252.136-.507.207-.759 1.833 2.244 4.558 3.49 7.51 3.467 4.616-.035 6.605-3.753 10.444-5.526.6-.277.524-1.203 0-1.503-3.393-1.934-4.384-6.215-7.792-8.165-2.343-1.34-5.022-1.398-7.45-.455l.038-.21c.078-.477-.194-.935-.714-.944-1.094-.018-2.187-.041-3.28-.031a.837.837 0 00-.239-.601 43.695 43.695 0 00-2.028-2.018c2.396.001 4.738-.285 7.088-.793.611-.132.756-.94.355-1.36-1.762-1.842-3.598-3.602-5.558-5.23-1.162-.964-2.564-2.426-4.03-2.841-2.426-.688-5.043 1.829-6.538 3.915z" fill="#FFD787"/><path d="M25.283 8.111c2.275 1.173 2.979 3.912 2.34 6.261-.28 1.03-.976 2.474-2.094 2.856-1.302.445-3.04-.395-3.972-1.247-1.653-1.512-1.881-3.82-1.41-5.899.971-1.991 3.046-3.048 5.136-1.97zm-6.745 1.497c-.088.305.02.579.211.774-2.848 6.515 7.8 12.88 10.395 5.184 1.14-3.38.084-7.483-3.292-9.077-2.834-1.336-6.414.014-7.314 3.12z" fill="#FFD787"/></svg>