<svg width="101" height="50" fill="none" xmlns="http://www.w3.org/2000/svg"><path d="M67.895 6.42c2.805 2.16 5.446 4.485 7.985 6.93-2.911.507-5.822.762-8.803.842a1.044 1.044 0 00-.944.573A65.041 65.041 0 0056.49 8.01c3.658-2.931 6.685-5.227 11.405-1.59zm1.282 14.816c.09.093.183.163.278.222l-.002.005c-.867 6.226-1.728 11.8-7.24 15.548h-.006c-12.06 2.203-24.497 1.36-35.32-4.716-3.066-1.721-5.944-3.761-8.645-6.026 5.903-6.235 7.316-15.33 5.09-23.38l-.031-.08c16.743-1.483 33.825 5.878 45.876 18.427zm5.856 1.237a191.641 191.641 0 01-3.821 16.587c-1.611-.94-3.227-1.87-4.891-2.714 3.716-3.283 4.89-9.257 5.383-13.98 1.11.048 2.22.083 3.33.107zm2.373 4.504c4.828-1.775 8.079 4.132 11.368 7.182-1.64 1.505-3.39 2.999-5.594 3.567-3.058.788-5.826-.5-8.2-2.324a.567.567 0 00-.431-.11 164.504 164.504 0 001.927-8.463c.222.202.542.291.93.148zm15.178 3.27c1.426 2.032 2.802 3.905 4.667 5.408-3.36 2.132-5.908 5.46-9.935 6.428-5 1.203-10.014-.723-13.413-4.325.14-.513.268-1.028.404-1.543 1.615 2.65 4.712 3.999 7.831 3.811 3.665-.222 6.569-2.748 9.085-5.136.54-.514.355-1.332-.224-1.712-4.462-2.937-7.546-10.66-14.154-8.203h-.003l.031-.161.215-.076c6.59-3.038 11.721.135 15.496 5.51zM3.154 9.402a46.635 46.635 0 0117.338-6.267c-.012.161-.004.33.046.513 2.15 7.718.308 14.668-3.848 21.28-5.146-4.592-9.63-9.988-13.537-15.526zm58.082 30.383c1.573 1.551 5.426 4.377 5.9 6.5.36 1.598.656.882-1.083 1.195-1.377.248-3.314 0-4.717 0-2.482 0-5.421.425-7.86 0-2.438-.424-3.758-1.26-4.749-3.604-.394-.935-.543-2.048-.787-3.07 4.203.087 8.528-.478 12.945-1.81-.007.259.094.535.351.789zm-6.32-32.65C38.118-1.878 17.72-3.136.652 7.917c-.557.361-.877 1.15-.466 1.75C10.948 25.37 27.368 39.64 46.408 40.75c-.176 2.717-.003 7.045 2.626 8.557 1.69.973 4.178.573 6.013.575h8.648c2.102 0 6.583.921 6.618-2.376.032-3.127-5.083-7.427-7.364-9.235a9.277 9.277 0 002.158-1.008c1.912 1.717 4.02 3.119 6.24 4.43.626.372 1.442.016 1.64-.655.11-.372.205-.746.312-1.117 2.763 3.3 6.872 5.133 11.322 5.099 6.957-.053 9.956-5.52 15.743-8.127.904-.408.79-1.77 0-2.21-5.115-2.845-6.609-9.14-11.746-12.008-3.532-1.972-7.57-2.056-11.23-.669.017-.103.04-.205.056-.308.118-.702-.292-1.377-1.076-1.39-1.648-.026-3.296-.06-4.945-.045a1.216 1.216 0 00-.36-.884 65.142 65.142 0 00-3.057-2.967c3.612.001 7.142-.42 10.685-1.166.922-.194 1.14-1.384.536-2-2.658-2.709-5.425-5.298-8.38-7.692-1.75-1.417-3.865-3.568-6.073-4.178-3.658-1.011-7.603 2.69-9.858 5.758z" fill="#FFD787"/><path d="M38.114 11.928c3.428 1.725 4.49 5.752 3.527 9.207-.422 1.516-1.471 3.638-3.157 4.2-1.962.654-4.583-.58-5.988-1.834-2.492-2.223-2.835-5.617-2.125-8.674 1.464-2.929 4.591-4.483 7.743-2.899zM27.946 14.13c-.133.448.029.85.317 1.138-4.292 9.58 11.758 18.941 15.67 7.624 1.72-4.972.127-11.006-4.962-13.349-4.272-1.965-9.668.02-11.025 4.587z" fill="#FFD787"/></svg>