<svg width="34" height="40" fill="none" xmlns="http://www.w3.org/2000/svg"><path d="M-4.25 24.248c3.809 1.054 7.592 2.207 11.376 3.348l.027.11c1.4 3.91 3.02 7.754 4.54 11.62.283.718 1.287.967 1.727.224 1.273-2.152 2.586-4.28 3.848-6.437.923-1.578 2.144-3.205 2.479-5.016a.96.96 0 00.258.09c3.952.757 7.925 1.045 11.947.788.732-.047 1.16-.756.817-1.41-1.873-3.583-4.056-6.94-6.92-9.832-.395-.399-1.112.123-.794.607 1.894 2.884 3.753 5.778 5.366 8.822a46.03 46.03 0 01-9.907-.8c-.607-.117-1.038.288-1.162.748a.468.468 0 00-.362.067c-1.644 1.162-2.505 3.208-3.495 4.912-.925 1.59-1.823 3.192-2.729 4.792-1.238-3.234-2.451-6.483-3.805-9.668a.979.979 0 00-.498-.516.887.887 0 00-.662-.863 657.27 657.27 0 01-9.717-2.984c3.216-2.743 6.563-5.255 9.979-7.772a.745.745 0 00.27-.908.916.916 0 00.078-.332c.137-3.763.064-7.539.063-11.307 3.195 2.208 6.379 4.403 9.522 6.692-.128.664.628 1.466 1.46 1.074a61.021 61.021 0 0111.712-4.125c-1.988 3.61-4.368 6.966-6.286 10.611-.29.55.4 1.09.869.662 3.576-3.271 6.026-7.92 8.133-12.198.387-.785-.247-1.617-1.119-1.44a59.665 59.665 0 00-13.701 4.558C15.867 5.15 12.058 2.216 8.037.108 7.453-.2 6.712.179 6.71.86c-.007 4.322-.17 8.658-.053 12.978a.88.88 0 00.064.285c-4.19 2.167-8.069 5.166-11.426 8.427-.555.539-.285 1.493.455 1.698z" fill="#FEB9CC"/></svg>